<svg xmlns="http://www.w3.org/2000/svg" fill-rule="evenodd" viewBox="0 0 100 100">
    <path d="M54.354 58.447V11.574c0-5.292-4.305-9.598-9.596-9.598-5.295 0-9.603 4.306-9.603 9.598v46.889c-6.921 3.577-11.35 10.772-11.35 18.61 0 11.552 9.399 20.95 20.953 20.95 11.549 0 20.946-9.398 20.946-20.95a20.915 20.915 0 0 0-11.35-18.626zm-9.596 36.576c-9.899 0-17.953-8.052-17.953-17.95 0-6.923 4.029-13.264 10.276-16.224a1.494 1.494 0 0 0 1.074-1.431V11.573c0-3.638 2.962-6.598 6.603-6.598a6.604 6.604 0 0 1 6.596 6.598v46.444a1.468 1.468 0 0 0-.408.55 1.5 1.5 0 0 0 .797 1.966c.109.046.213.102.321.15.095.059.197.105.305.142a17.915 17.915 0 0 1 10.335 16.247c0 9.899-8.051 17.951-17.946 17.951z"/>
    <path d="M46.251 68.074V17.188a1.5 1.5 0 1 0-3 0v50.886c-4.74.727-8.386 4.822-8.386 9.764 0 5.454 4.435 9.89 9.886 9.89 5.456 0 9.894-4.437 9.894-9.89-.001-4.943-3.65-9.038-8.394-9.764zm-1.5 16.654c-3.797 0-6.886-3.091-6.886-6.89s3.089-6.89 6.886-6.89c3.801 0 6.894 3.091 6.894 6.89s-3.093 6.89-6.894 6.89zM59.16 17.77h15.536a1.5 1.5 0 1 0 0-3H59.16a1.5 1.5 0 1 0 0 3zm0 15.707h7.769a1.5 1.5 0 1 0 0-3H59.16a1.5 1.5 0 1 0 0 3zm15.536 13.99H59.16a1.5 1.5 0 1 0 0 3h15.536a1.5 1.5 0 1 0 0-3z"/>
</svg>